<?xml version="1.0" encoding="UTF-8" standalone="no"?>
<!DOCTYPE svg PUBLIC "-//W3C//DTD SVG 1.1//EN" "http://www.w3.org/Graphics/SVG/1.1/DTD/svg11.dtd">
<svg xmlns="http://www.w3.org/2000/svg" xmlns:xlink="http://www.w3.org/1999/xlink" version="1.1" width="362.1293pt" height="102.1268pt" viewBox="0 0 362.1293 102.1268">
<g enable-background="new">
<g id="Layer-1" data-name="Layer 1">
<path transform="matrix(1,0,0,-1,1,101.1268)" d="M 37.3405 0 C 29.1353 0 22.0572 .9448 16.1124 2.8344 C 10.1653 4.7239 4.7945 8.113 0 12.9994 L 15.4891 28.4885 C 17.8863 26.0912 21.0438 24.3408 24.9622 23.2333 C 28.8805 22.1278 33.0537 21.5731 37.4777 21.5731 C 46.8822 21.5731 51.5846 24.5251 51.5846 30.4251 C 51.5846 32.9142 51.1004 34.6666 50.1321 35.68 C 49.1638 36.6953 48.174 37.4323 47.1586 37.893 C 46.1452 38.3536 44.8084 38.677 43.1481 38.8613 L 31.2542 40.5215 C 22.4963 41.8113 15.8811 44.7398 11.41 49.303 C 6.9369 53.8659 4.7024 60.4363 4.7024 69.01 C 4.7024 78.1381 7.9288 85.6063 14.3836 91.4142 C 20.8361 97.2238 29.596 100.1268 40.659 100.1268 C 47.9426 100.1268 54.2347 99.229 59.5369 97.4296 C 64.8388 95.6324 69.6098 92.6138 73.8516 88.3721 L 58.6392 73.1597 C 56.7947 75.0039 54.5346 76.4328 51.861 77.4462 C 49.1873 78.4596 45.8218 78.9673 41.7662 78.9673 L 39.9671 78.9673 C 36.0037 78.9673 33.0301 78.0695 31.0484 76.2701 C 29.0648 74.4729 28.0749 72.3285 28.0749 69.8391 C 28.0749 68.8258 28.2356 67.9731 28.5591 67.2812 C 28.8805 66.5892 29.3882 65.8993 30.0801 65.2073 C 30.7701 64.5154 31.6247 63.9156 32.6381 63.4099 C 33.6515 62.9022 35.0354 62.5552 36.7877 62.371 L 48.6797 60.7127 C 57.3474 59.5131 63.3864 57.2315 66.797 53.8659 C 70.2096 50.5006 72.4912 47.0429 73.6438 43.4951 C 74.7964 39.9453 75.3727 35.7721 75.3727 30.9779 C 75.3727 21.3888 71.7542 13.8285 64.5154 8.2973 C 57.2788 2.7658 48.219 0 37.3405 0 Z M 158.9051 .69 L 158.9051 47.5741 L 144.9374 23.6489 L 129.4464 24.478 L 115.4786 47.5741 L 115.4786 .69 L 91.277 .69 L 91.277 99.2976 L 115.0651 99.2976 L 137.1929 55.8711 L 159.3207 99.2976 L 183.1068 99.2976 L 183.1068 .69 Z M 245.8933 .69 L 203.0216 .69 L 203.0216 99.2976 L 243.8195 99.2976 C 253.8692 99.2976 261.6134 96.7161 267.0528 91.5534 C 272.4942 86.3904 275.2129 79.475 275.2129 70.8075 C 275.2129 65.9208 274.1074 61.9104 271.8944 58.7761 C 269.6814 55.6418 267.192 53.1524 264.4262 51.3082 C 267.929 49.1873 270.834 46.5823 273.1391 43.5402 C 275.4442 40.498 276.5965 35.9113 276.5965 29.8018 C 276.5965 20.5597 273.7604 13.3914 268.0917 8.3208 C 262.421 3.2264 255.0217 .69 245.8933 .69 Z M 242.2984 77.5854 L 227.2232 77.5854 L 227.2232 61.5419 L 242.2984 61.5419 C 245.3406 61.5419 247.5536 62.3259 248.9374 63.894 C 250.3193 65.4602 251.0113 67.3498 251.0113 69.5628 C 251.0113 71.7758 250.3193 73.6654 248.9374 75.2332 C 247.5536 76.8013 245.3406 77.5854 242.2984 77.5854 Z M 243.5431 39.8296 L 227.2232 39.8296 L 227.2232 22.4042 L 243.5431 22.4042 C 246.5853 22.4042 248.8218 23.2569 250.2507 24.9857 C 251.6797 26.691 252.3951 28.7649 252.3951 31.1856 C 252.3951 33.514 251.6797 35.5428 250.2507 37.2481 C 248.8218 38.9769 246.5853 39.8296 243.5431 39.8296 Z M 335.9256 77.7226 L 335.9256 .69 L 311.724 .69 L 311.724 77.7226 L 287.5224 77.7226 L 287.5224 99.2976 L 360.1293 99.2976 L 360.1293 77.7226 Z " fill="#0f4c81"/>
</g>
</g>
</svg>
